{
  "source": "C:\\Users\\Peter\\Desktop\\stuff\\MIUN\\quantitative_research\\video_compression\\videos\\UVG\\HoneyBee_1920x1080_120fps_420_8bit_YUV.y4m",
  "output": "C:\\Users\\Peter\\Desktop\\stuff\\MIUN\\quantitative_research\\video_compression\\compressed_videos\\UVG\\vp9\\3\\HoneyBee_1920x1080_120fps_420_8bit_YUV_vp9.webm",
  "codec": "vp9",
  "ok": "[yuv4mpegpipe @ 0000015b08925280] Stream #0: not enough frames to estimate rate; consider increasing probesize\nInput #0, yuv4mpegpipe, from 'C:\\Users\\Peter\\Desktop\\stuff\\MIUN\\quantitative_research\\video_compression\\videos\\UVG\\HoneyBee_1920x1080_120fps_420_8bit_YUV.y4m':\n  Duration: 00:00:05.00, start: 0.000000, bitrate: 2985989 kb/s\n  Stream #0:0: Video: rawvideo (I420 / 0x30323449), yuv420p(progressive), 1920x1080, 120 fps, 120 tbr, 120 tbn\n[out#0/webm @ 0000015b08928e00] Codec AVOption b:a (set bitrate (in bits/s)) has not been used for any stream. The most likely reason is either wrong type (e.g. a video option with no video streams) or that it is a private option of some decoder which was not actually used for any stream.\nStream mapping:\n  Stream #0:0 -> #0:0 (rawvideo (native) -> vp9 (libvpx-vp9))\nPress [q] to stop, [?] for help\n[libvpx-vp9 @ 0000015b0892bf80] v1.15.2-100-g40561f514\nOutput #0, webm, to 'C:\\Users\\Peter\\Desktop\\stuff\\MIUN\\quantitative_research\\video_compression\\compressed_videos\\UVG\\vp9\\3\\HoneyBee_1920x1080_120fps_420_8bit_YUV_vp9.webm':\n  Metadata:\n    encoder         : Lavf62.3.100\n  Stream #0:0: Video: vp9, yuv420p(tv, progressive), 1920x1080, q=2-31, 3000 kb/s, 120 fps, 1k tbn\n    Metadata:\n      encoder         : Lavc62.11.100 libvpx-vp9\n    Side data:\n      cpb: bitrate max/min/avg: 0/0/0 buffer size: 3000000 vbv_delay: N/A\nframe=    0 fps=0.0 q=0.0 size=       0KiB time=N/A bitrate=N/A speed=N/A elapsed=0:00:00.51    \nframe=    5 fps=4.8 q=39.0 size=       0KiB time=00:00:00.04 bitrate=  92.4kbits/s speed=0.0399x elapsed=0:00:01.04    \nframe=    8 fps=5.1 q=38.0 size=       0KiB time=00:00:00.06 bitrate=  57.7kbits/s speed=0.0425x elapsed=0:00:01.56    \nframe=   11 fps=5.3 q=35.0 size=       0KiB time=00:00:00.09 bitrate=  42.0kbits/s speed=0.0438x elapsed=0:00:02.09    \nframe=   14 fps=5.4 q=40.0 size=       0KiB time=00:00:00.11 bitrate=  33.0kbits/s speed=0.0447x elapsed=0:00:02.60    \nframe=   16 fps=5.1 q=22.0 size=       0KiB time=00:00:00.13 bitrate=  28.9kbits/s speed=0.0426x elapsed=0:00:03.12    \nframe=   20 fps=5.5 q=26.0 size=       0KiB time=00:00:00.16 bitrate=  23.1kbits/s speed=0.0456x elapsed=0:00:03.65    \nframe=   22 fps=5.3 q=23.0 size=       0KiB time=00:00:00.18 bitrate=  21.0kbits/s speed=0.0439x elapsed=0:00:04.17    \nframe=   25 fps=5.3 q=25.0 size=       0KiB time=00:00:00.20 bitrate=  18.5kbits/s speed=0.0444x elapsed=0:00:04.69    \nframe=   28 fps=5.4 q=25.0 size=       0KiB time=00:00:00.23 bitrate=  16.5kbits/s speed=0.0447x elapsed=0:00:05.21    \nframe=   30 fps=5.2 q=25.0 size=       0KiB time=00:00:00.25 bitrate=  15.4kbits/s speed=0.0436x elapsed=0:00:05.73    \nframe=   30 fps=4.8 q=25.0 size=       0KiB time=00:00:00.25 bitrate=  15.4kbits/s speed=0.04x elapsed=0:00:06.25    \nframe=   33 fps=4.9 q=22.0 size=       0KiB time=00:00:00.27 bitrate=  14.0kbits/s speed=0.0406x elapsed=0:00:06.78    \nframe=   36 fps=4.9 q=23.0 size=       0KiB time=00:00:00.30 bitrate=  12.8kbits/s speed=0.0411x elapsed=0:00:07.30    \nframe=   38 fps=4.9 q=23.0 size=       0KiB time=00:00:00.31 bitrate=  12.2kbits/s speed=0.0404x elapsed=0:00:07.83    \nframe=   41 fps=4.9 q=23.0 size=       0KiB time=00:00:00.34 bitrate=  11.3kbits/s speed=0.0409x elapsed=0:00:08.34    \nframe=   44 fps=5.0 q=23.0 size=       0KiB time=00:00:00.36 bitrate=  10.5kbits/s speed=0.0414x elapsed=0:00:08.86    \nframe=   45 fps=4.8 q=23.0 size=       0KiB time=00:00:00.37 bitrate=  10.3kbits/s speed=0.04x elapsed=0:00:09.38    \nframe=   46 fps=4.6 q=13.0 size=       0KiB time=00:00:00.38 bitrate=  10.0kbits/s speed=0.0387x elapsed=0:00:09.90    \nframe=   48 fps=4.6 q=20.0 size=       0KiB time=00:00:00.40 bitrate=   9.6kbits/s speed=0.0383x elapsed=0:00:10.43    \nframe=   51 fps=4.7 q=22.0 size=       0KiB time=00:00:00.42 bitrate=   9.1kbits/s speed=0.0388x elapsed=0:00:10.95    \nframe=   53 fps=4.6 q=22.0 size=       0KiB time=00:00:00.44 bitrate=   8.7kbits/s speed=0.0385x elapsed=0:00:11.47    \nframe=   56 fps=4.7 q=23.0 size=       0KiB time=00:00:00.46 bitrate=   8.2kbits/s speed=0.0389x elapsed=0:00:11.98    \nframe=   59 fps=4.7 q=22.0 size=       0KiB time=00:00:00.49 bitrate=   7.8kbits/s speed=0.0393x elapsed=0:00:12.50    \nframe=   60 fps=4.6 q=22.0 size=       0KiB time=00:00:00.50 bitrate=   7.7kbits/s speed=0.0384x elapsed=0:00:13.02    \nframe=   61 fps=4.5 q=12.0 size=       0KiB time=00:00:00.50 bitrate=   7.6kbits/s speed=0.0375x elapsed=0:00:13.55    \nframe=   64 fps=4.5 q=22.0 size=       0KiB time=00:00:00.53 bitrate=   7.2kbits/s speed=0.0379x elapsed=0:00:14.07    \nframe=   66 fps=4.5 q=22.0 size=       0KiB time=00:00:00.55 bitrate=   7.0kbits/s speed=0.0376x elapsed=0:00:14.62    \nframe=   69 fps=4.6 q=22.0 size=       0KiB time=00:00:00.57 bitrate=   6.7kbits/s speed=0.038x elapsed=0:00:15.14    \nframe=   72 fps=4.6 q=22.0 size=       0KiB time=00:00:00.60 bitrate=   6.4kbits/s speed=0.0383x elapsed=0:00:15.66    \nframe=   75 fps=4.6 q=21.0 size=       0KiB time=00:00:00.62 bitrate=   6.2kbits/s speed=0.0386x elapsed=0:00:16.19    \nframe=   75 fps=4.5 q=21.0 size=       0KiB time=00:00:00.62 bitrate=   6.2kbits/s speed=0.0374x elapsed=0:00:16.70    \nframe=   77 fps=4.5 q=22.0 size=       0KiB time=00:00:00.64 bitrate=   6.0kbits/s speed=0.0372x elapsed=0:00:17.24    \nframe=   79 fps=4.4 q=22.0 size=       0KiB time=00:00:00.65 bitrate=   5.8kbits/s speed=0.0371x elapsed=0:00:17.76    \nframe=   81 fps=4.4 q=22.0 size=       0KiB time=00:00:00.67 bitrate=   5.7kbits/s speed=0.0369x elapsed=0:00:18.28    \nframe=   84 fps=4.5 q=23.0 size=       0KiB time=00:00:00.70 bitrate=   5.5kbits/s speed=0.0372x elapsed=0:00:18.80    \nframe=   86 fps=4.4 q=23.0 size=       0KiB time=00:00:00.71 bitrate=   5.4kbits/s speed=0.0371x elapsed=0:00:19.33    \nframe=   89 fps=4.5 q=22.0 size=       0KiB time=00:00:00.74 bitrate=   5.2kbits/s speed=0.0373x elapsed=0:00:19.86    \nframe=   90 fps=4.4 q=21.0 size=       0KiB time=00:00:00.75 bitrate=   5.1kbits/s speed=0.0368x elapsed=0:00:20.39    \nframe=   90 fps=4.3 q=21.0 size=       0KiB time=00:00:00.75 bitrate=   5.1kbits/s speed=0.0359x elapsed=0:00:20.91    \nframe=   93 fps=4.3 q=19.0 size=       0KiB time=00:00:00.76 bitrate=   5.0kbits/s speed=0.0358x elapsed=0:00:21.43    \nframe=   95 fps=4.3 q=20.0 size=       0KiB time=00:00:00.79 bitrate=   4.9kbits/s speed=0.036x elapsed=0:00:21.96    \nframe=   98 fps=4.4 q=21.0 size=       0KiB time=00:00:00.81 bitrate=   4.7kbits/s speed=0.0363x elapsed=0:00:22.48    \nframe=  100 fps=4.3 q=20.0 size=       0KiB time=00:00:00.83 bitrate=   4.6kbits/s speed=0.0362x elapsed=0:00:22.99    \nframe=  102 fps=4.3 q=20.0 size=       0KiB time=00:00:00.85 bitrate=   4.5kbits/s speed=0.0361x elapsed=0:00:23.51    \nframe=  105 fps=4.4 q=20.0 size=       0KiB time=00:00:00.87 bitrate=   4.4kbits/s speed=0.0364x elapsed=0:00:24.04    \nframe=  105 fps=4.3 q=20.0 size=       0KiB time=00:00:00.87 bitrate=   4.4kbits/s speed=0.0356x elapsed=0:00:24.55    \nframe=  107 fps=4.3 q=25.0 size=       0KiB time=00:00:00.89 bitrate=   4.3kbits/s speed=0.0356x elapsed=0:00:25.08    \nframe=  110 fps=4.3 q=22.0 size=       0KiB time=00:00:00.91 bitrate=   4.2kbits/s speed=0.0358x elapsed=0:00:25.60    \nframe=  113 fps=4.3 q=22.0 size=       0KiB time=00:00:00.94 bitrate=   4.1kbits/s speed=0.036x elapsed=0:00:26.13    \nframe=  116 fps=4.4 q=21.0 size=       0KiB time=00:00:00.96 bitrate=   4.0kbits/s speed=0.0363x elapsed=0:00:26.66    \nframe=  116 fps=4.3 q=21.0 size=       0KiB time=00:00:00.96 bitrate=   4.0kbits/s speed=0.0355x elapsed=0:00:27.19    \nframe=  118 fps=4.3 q=20.0 size=       0KiB time=00:00:00.98 bitrate=   3.9kbits/s speed=0.0355x elapsed=0:00:27.71    \nframe=  121 fps=4.3 q=21.0 size=       0KiB time=00:00:01.00 bitrate=   3.8kbits/s speed=0.0357x elapsed=0:00:28.24    \nframe=  123 fps=4.3 q=20.0 size=       0KiB time=00:00:01.02 bitrate=   3.8kbits/s speed=0.0356x elapsed=0:00:28.77    \nframe=  126 fps=4.3 q=21.0 size=       0KiB time=00:00:01.05 bitrate=   3.7kbits/s speed=0.0358x elapsed=0:00:29.30    \nframe=  128 fps=4.3 q=21.0 size=       0KiB time=00:00:01.06 bitrate=   3.6kbits/s speed=0.0358x elapsed=0:00:29.82    \nframe=  128 fps=4.2 q=21.0 size=       0KiB time=00:00:01.06 bitrate=   3.6kbits/s speed=0.0351x elapsed=0:00:30.34    \nframe=  131 fps=4.2 q=30.0 size=     512KiB time=00:00:01.09 bitrate=3842.1kbits/s speed=0.0354x elapsed=0:00:30.85    \nframe=  134 fps=4.3 q=19.0 size=     512KiB time=00:00:01.11 bitrate=3756.1kbits/s speed=0.0356x elapsed=0:00:31.37    \nframe=  135 fps=4.2 q=26.0 size=     512KiB time=00:00:01.12 bitrate=3728.3kbits/s speed=0.0352x elapsed=0:00:31.91    \nframe=  139 fps=4.3 q=18.0 size=     512KiB time=00:00:01.15 bitrate=3621.0kbits/s speed=0.0357x elapsed=0:00:32.44    \nframe=  142 fps=4.3 q=33.0 size=     512KiB time=00:00:01.18 bitrate=3544.5kbits/s speed=0.0359x elapsed=0:00:32.96    \nframe=  143 fps=4.3 q=18.0 size=     512KiB time=00:00:01.19 bitrate=3519.7kbits/s speed=0.0356x elapsed=0:00:33.48    \nframe=  143 fps=4.2 q=18.0 size=     512KiB time=00:00:01.19 bitrate=3519.7kbits/s speed=0.035x elapsed=0:00:34.00    \nframe=  146 fps=4.2 q=18.0 size=     512KiB time=00:00:01.21 bitrate=3447.4kbits/s speed=0.0352x elapsed=0:00:34.51    \nframe=  148 fps=4.2 q=18.0 size=     512KiB time=00:00:01.23 bitrate=3400.8kbits/s speed=0.0352x elapsed=0:00:35.03    \nframe=  150 fps=4.2 q=19.0 size=     512KiB time=00:00:01.25 bitrate=3355.4kbits/s speed=0.0352x elapsed=0:00:35.54    \nframe=  152 fps=4.2 q=19.0 size=     512KiB time=00:00:01.26 bitrate=3311.3kbits/s speed=0.0351x elapsed=0:00:36.06    \nframe=  154 fps=4.2 q=17.0 size=     512KiB time=00:00:01.28 bitrate=3268.3kbits/s speed=0.0351x elapsed=0:00:36.57    \nframe=  155 fps=4.2 q=30.0 size=     512KiB time=00:00:01.29 bitrate=3247.2kbits/s speed=0.0348x elapsed=0:00:37.10    \nframe=  158 fps=4.2 q=25.0 size=     512KiB time=00:00:01.31 bitrate=3185.5kbits/s speed=0.035x elapsed=0:00:37.60    \nframe=  159 fps=4.2 q=14.0 size=     512KiB time=00:00:01.32 bitrate=3165.5kbits/s speed=0.0347x elapsed=0:00:38.13    \nframe=  161 fps=4.2 q=23.0 size=     512KiB time=00:00:01.34 bitrate=3126.2kbits/s speed=0.0347x elapsed=0:00:38.66    \nframe=  163 fps=4.2 q=30.0 size=     512KiB time=00:00:01.35 bitrate=3087.8kbits/s speed=0.0347x elapsed=0:00:39.19    \nframe=  165 fps=4.2 q=32.0 size=     512KiB time=00:00:01.37 bitrate=3050.4kbits/s speed=0.0346x elapsed=0:00:39.70    \nframe=  167 fps=4.2 q=33.0 size=     512KiB time=00:00:01.39 bitrate=3013.9kbits/s speed=0.0346x elapsed=0:00:40.22    \nframe=  169 fps=4.1 q=23.0 size=     512KiB time=00:00:01.40 bitrate=2978.2kbits/s speed=0.0346x elapsed=0:00:40.75    \nframe=  171 fps=4.1 q=24.0 size=     512KiB time=00:00:01.42 bitrate=2943.4kbits/s speed=0.0345x elapsed=0:00:41.27    \nframe=  173 fps=4.1 q=31.0 size=     512KiB time=00:00:01.44 bitrate=2909.3kbits/s speed=0.0345x elapsed=0:00:41.79    \nframe=  175 fps=4.1 q=18.0 size=     512KiB time=00:00:01.45 bitrate=2876.1kbits/s speed=0.0345x elapsed=0:00:42.31    \nframe=  176 fps=4.1 q=19.0 size=     512KiB time=00:00:01.46 bitrate=2859.8kbits/s speed=0.0342x elapsed=0:00:42.82    \nframe=  178 fps=4.1 q=21.0 size=     512KiB time=00:00:01.48 bitrate=2827.6kbits/s speed=0.0342x elapsed=0:00:43.34    \nframe=  180 fps=4.1 q=21.0 size=     512KiB time=00:00:01.50 bitrate=2796.2kbits/s speed=0.0342x elapsed=0:00:43.85    \nframe=  182 fps=4.1 q=22.0 size=     512KiB time=00:00:01.51 bitrate=2765.5kbits/s speed=0.0342x elapsed=0:00:44.37    \nframe=  184 fps=4.1 q=23.0 size=     512KiB time=00:00:01.53 bitrate=2735.4kbits/s speed=0.0342x elapsed=0:00:44.89    \nframe=  186 fps=4.1 q=28.0 size=     512KiB time=00:00:01.55 bitrate=2706.0kbits/s speed=0.0341x elapsed=0:00:45.41    \nframe=  188 fps=4.1 q=30.0 size=     512KiB time=00:00:01.56 bitrate=2677.2kbits/s speed=0.0341x elapsed=0:00:45.93    \nframe=  188 fps=4.0 q=30.0 size=     512KiB time=00:00:01.56 bitrate=2677.2kbits/s speed=0.0337x elapsed=0:00:46.45    \nframe=  188 fps=4.0 q=30.0 size=     512KiB time=00:00:01.56 bitrate=2677.2kbits/s speed=0.0333x elapsed=0:00:46.98    \nframe=  190 fps=4.0 q=25.0 size=     512KiB time=00:00:01.58 bitrate=2649.0kbits/s speed=0.0333x elapsed=0:00:47.50    \nframe=  192 fps=4.0 q=21.0 size=     512KiB time=00:00:01.60 bitrate=2621.4kbits/s speed=0.0333x elapsed=0:00:48.02    \nframe=  194 fps=4.0 q=21.0 size=     512KiB time=00:00:01.61 bitrate=2594.4kbits/s speed=0.0333x elapsed=0:00:48.55    \nframe=  196 fps=4.0 q=21.0 size=     512KiB time=00:00:01.63 bitrate=2567.9kbits/s speed=0.0333x elapsed=0:00:49.06    \nframe=  198 fps=4.0 q=20.0 size=     512KiB time=00:00:01.65 bitrate=2542.0kbits/s speed=0.0333x elapsed=0:00:49.57    \nframe=  201 fps=4.0 q=19.0 size=     512KiB time=00:00:01.67 bitrate=2504.1kbits/s speed=0.0334x elapsed=0:00:50.10    \nframe=  203 fps=4.0 q=19.0 size=     512KiB time=00:00:01.69 bitrate=2479.4kbits/s speed=0.0334x elapsed=0:00:50.62    \nframe=  203 fps=4.0 q=19.0 size=     512KiB time=00:00:01.69 bitrate=2479.4kbits/s speed=0.0331x elapsed=0:00:51.13    \nframe=  205 fps=4.0 q=21.0 size=     512KiB time=00:00:01.70 bitrate=2455.2kbits/s speed=0.0331x elapsed=0:00:51.66    \nframe=  207 fps=4.0 q=19.0 size=     512KiB time=00:00:01.72 bitrate=2431.5kbits/s speed=0.0331x elapsed=0:00:52.17    \nframe=  209 fps=4.0 q=19.0 size=     512KiB time=00:00:01.74 bitrate=2408.2kbits/s speed=0.0331x elapsed=0:00:52.68    \nframe=  211 fps=4.0 q=20.0 size=     512KiB time=00:00:01.75 bitrate=2385.4kbits/s speed=0.033x elapsed=0:00:53.22    \nframe=  213 fps=4.0 q=21.0 size=     512KiB time=00:00:01.77 bitrate=2363.0kbits/s speed=0.033x elapsed=0:00:53.74    \nframe=  215 fps=4.0 q=20.0 size=     512KiB time=00:00:01.79 bitrate=2341.0kbits/s speed=0.033x elapsed=0:00:54.27    \nframe=  217 fps=4.0 q=20.0 size=     512KiB time=00:00:01.80 bitrate=2319.4kbits/s speed=0.033x elapsed=0:00:54.80    \nframe=  218 fps=3.9 q=20.0 size=     512KiB time=00:00:01.81 bitrate=2308.8kbits/s speed=0.0328x elapsed=0:00:55.32    \nframe=  219 fps=3.9 q=11.0 size=     512KiB time=00:00:01.82 bitrate=2298.2kbits/s speed=0.0327x elapsed=0:00:55.84    \nframe=  222 fps=3.9 q=19.0 size=     512KiB time=00:00:01.85 bitrate=2267.2kbits/s speed=0.0328x elapsed=0:00:56.36    \nframe=  224 fps=3.9 q=19.0 size=     512KiB time=00:00:01.86 bitrate=2246.9kbits/s speed=0.0328x elapsed=0:00:56.88    \nframe=  226 fps=3.9 q=19.0 size=     512KiB time=00:00:01.88 bitrate=2227.1kbits/s speed=0.0328x elapsed=0:00:57.41    \nframe=  229 fps=4.0 q=22.0 size=     512KiB time=00:00:01.90 bitrate=2197.9kbits/s speed=0.0329x elapsed=0:00:57.93    \nframe=  231 fps=4.0 q=22.0 size=     512KiB time=00:00:01.92 bitrate=2178.9kbits/s speed=0.0329x elapsed=0:00:58.46    \nframe=  233 fps=3.9 q=22.0 size=     512KiB time=00:00:01.94 bitrate=2160.2kbits/s speed=0.0329x elapsed=0:00:58.99    \nframe=  233 fps=3.9 q=22.0 size=     512KiB time=00:00:01.94 bitrate=2160.2kbits/s speed=0.0326x elapsed=0:00:59.52    \nframe=  236 fps=3.9 q=20.0 size=     512KiB time=00:00:01.96 bitrate=2132.7kbits/s speed=0.0328x elapsed=0:01:00.04    \nframe=  238 fps=3.9 q=20.0 size=     512KiB time=00:00:01.98 bitrate=2114.8kbits/s speed=0.0327x elapsed=0:01:00.56    \nframe=  240 fps=3.9 q=21.0 size=     512KiB time=00:00:02.00 bitrate=2097.2kbits/s speed=0.0327x elapsed=0:01:01.08    \nframe=  243 fps=3.9 q=21.0 size=     512KiB time=00:00:02.02 bitrate=2071.3kbits/s speed=0.0329x elapsed=0:01:01.59    \nframe=  244 fps=3.9 q=21.0 size=     512KiB time=00:00:02.03 bitrate=2062.8kbits/s speed=0.0327x elapsed=0:01:02.10    \nframe=  245 fps=3.9 q=12.0 size=     512KiB time=00:00:02.04 bitrate=2054.4kbits/s speed=0.0326x elapsed=0:01:02.62    \nframe=  247 fps=3.9 q=24.0 size=     512KiB time=00:00:02.05 bitrate=2037.7kbits/s speed=0.0326x elapsed=0:01:03.14    \nframe=  249 fps=3.9 q=22.0 size=     512KiB time=00:00:02.07 bitrate=2021.4kbits/s speed=0.0326x elapsed=0:01:03.67    \nframe=  252 fps=3.9 q=18.0 size=     512KiB time=00:00:02.10 bitrate=1997.3kbits/s speed=0.0327x elapsed=0:01:04.20    \nframe=  254 fps=3.9 q=18.0 size=     512KiB time=00:00:02.11 bitrate=1981.6kbits/s speed=0.0327x elapsed=0:01:04.72    \nframe=  255 fps=3.9 q=23.0 size=     512KiB time=00:00:02.12 bitrate=1973.8kbits/s speed=0.0326x elapsed=0:01:05.24    \nframe=  256 fps=3.9 q=16.0 size=     512KiB time=00:00:02.13 bitrate=1966.1kbits/s speed=0.0324x elapsed=0:01:05.76    \nframe=  259 fps=3.9 q=21.0 size=    1792KiB time=00:00:02.15 bitrate=6801.6kbits/s speed=0.0326x elapsed=0:01:06.29    \nframe=  262 fps=3.9 q=21.0 size=    1792KiB time=00:00:02.18 bitrate=6723.7kbits/s speed=0.0327x elapsed=0:01:06.81    \nframe=  265 fps=3.9 q=22.0 size=    1792KiB time=00:00:02.20 bitrate=6647.6kbits/s speed=0.0328x elapsed=0:01:07.35    \nframe=  267 fps=3.9 q=23.0 size=    1792KiB time=00:00:02.22 bitrate=6597.8kbits/s speed=0.0328x elapsed=0:01:07.87    \nframe=  269 fps=3.9 q=28.0 size=    1792KiB time=00:00:02.24 bitrate=6548.7kbits/s speed=0.0328x elapsed=0:01:08.40    \nframe=  272 fps=3.9 q=22.0 size=    1792KiB time=00:00:02.26 bitrate=6476.5kbits/s speed=0.0329x elapsed=0:01:08.92    \nframe=  274 fps=3.9 q=22.0 size=    1792KiB time=00:00:02.28 bitrate=6429.2kbits/s speed=0.0329x elapsed=0:01:09.44    \nframe=  277 fps=4.0 q=21.0 size=    1792KiB time=00:00:02.30 bitrate=6359.6kbits/s speed=0.033x elapsed=0:01:09.97    \nframe=  278 fps=3.9 q=21.0 size=    1792KiB time=00:00:02.31 bitrate=6336.7kbits/s speed=0.0329x elapsed=0:01:10.50    \nframe=  281 fps=4.0 q=21.0 size=    1792KiB time=00:00:02.34 bitrate=6269.1kbits/s speed=0.033x elapsed=0:01:11.02    \nframe=  283 fps=4.0 q=20.0 size=    1792KiB time=00:00:02.35 bitrate=6246.8kbits/s speed=0.0329x elapsed=0:01:11.53    \nframe=  285 fps=4.0 q=20.0 size=    1792KiB time=00:00:02.37 bitrate=6181.1kbits/s speed=0.033x elapsed=0:01:12.05    \nframe=  286 fps=3.9 q=21.0 size=    1792KiB time=00:00:02.38 bitrate=6159.5kbits/s speed=0.0328x elapsed=0:01:12.58    \nframe=  286 fps=3.9 q=21.0 size=    1792KiB time=00:00:02.38 bitrate=6159.5kbits/s speed=0.0326x elapsed=0:01:13.11    \nframe=  287 fps=3.9 q=8.0 size=    1792KiB time=00:00:02.39 bitrate=6138.0kbits/s speed=0.0325x elapsed=0:01:13.62    \nframe=  290 fps=3.9 q=22.0 size=    1792KiB time=00:00:02.41 bitrate=6074.5kbits/s speed=0.0326x elapsed=0:01:14.14    \nframe=  292 fps=3.9 q=20.0 size=    1792KiB time=00:00:02.43 bitrate=6032.9kbits/s speed=0.0326x elapsed=0:01:14.66    \nframe=  295 fps=3.9 q=20.0 size=    1792KiB time=00:00:02.45 bitrate=5971.6kbits/s speed=0.0327x elapsed=0:01:15.19    \nframe=  297 fps=3.9 q=20.0 size=    1792KiB time=00:00:02.47 bitrate=5931.3kbits/s speed=0.0327x elapsed=0:01:15.72    \nframe=  299 fps=3.9 q=20.0 size=    1792KiB time=00:00:02.49 bitrate=5891.7kbits/s speed=0.0327x elapsed=0:01:16.23    \nframe=  301 fps=3.9 q=21.0 size=    1792KiB time=00:00:02.50 bitrate=5852.5kbits/s speed=0.0327x elapsed=0:01:16.77    \nframe=  301 fps=3.9 q=21.0 size=    1792KiB time=00:00:02.50 bitrate=5852.5kbits/s speed=0.0325x elapsed=0:01:17.28    \nframe=  303 fps=3.9 q=20.0 size=    1792KiB time=00:00:02.52 bitrate=5813.9kbits/s speed=0.0325x elapsed=0:01:17.79    \nframe=  305 fps=3.9 q=20.0 size=    1792KiB time=00:00:02.54 bitrate=5775.8kbits/s speed=0.0325x elapsed=0:01:18.32    \nframe=  308 fps=3.9 q=20.0 size=    1792KiB time=00:00:02.56 bitrate=5719.5kbits/s speed=0.0326x elapsed=0:01:18.83    \nframe=  310 fps=3.9 q=21.0 size=    1792KiB time=00:00:02.58 bitrate=5682.6kbits/s speed=0.0326x elapsed=0:01:19.35    \nframe=  312 fps=3.9 q=20.0 size=    1792KiB time=00:00:02.60 bitrate=5646.2kbits/s speed=0.0325x elapsed=0:01:19.88    \nframe=  314 fps=3.9 q=20.0 size=    1792KiB time=00:00:02.61 bitrate=5610.2kbits/s speed=0.0325x elapsed=0:01:20.41    \nframe=  316 fps=3.9 q=19.0 size=    1792KiB time=00:00:02.63 bitrate=5574.7kbits/s speed=0.0325x elapsed=0:01:20.93    \nframe=  316 fps=3.9 q=19.0 size=    1792KiB time=00:00:02.63 bitrate=5574.7kbits/s speed=0.0323x elapsed=0:01:21.45    \nframe=  318 fps=3.9 q=20.0 size=    1792KiB time=00:00:02.65 bitrate=5539.6kbits/s speed=0.0323x elapsed=0:01:21.99    \nframe=  320 fps=3.9 q=20.0 size=    1792KiB time=00:00:02.66 bitrate=5505.0kbits/s speed=0.0323x elapsed=0:01:22.52    \nframe=  322 fps=3.9 q=20.0 size=    1792KiB time=00:00:02.68 bitrate=5470.8kbits/s speed=0.0323x elapsed=0:01:23.03    \nframe=  324 fps=3.9 q=19.0 size=    1792KiB time=00:00:02.70 bitrate=5437.1kbits/s speed=0.0323x elapsed=0:01:23.54    \nframe=  327 fps=3.9 q=20.0 size=    1792KiB time=00:00:02.72 bitrate=5387.2kbits/s speed=0.0324x elapsed=0:01:24.06    \nframe=  329 fps=3.9 q=21.0 size=    1792KiB time=00:00:02.74 bitrate=5354.4kbits/s speed=0.0324x elapsed=0:01:24.60    \nframe=  331 fps=3.9 q=21.0 size=    1792KiB time=00:00:02.75 bitrate=5322.1kbits/s speed=0.0324x elapsed=0:01:25.12    \nframe=  331 fps=3.9 q=21.0 size=    1792KiB time=00:00:02.75 bitrate=5322.1kbits/s speed=0.0322x elapsed=0:01:25.64    \nframe=  333 fps=3.9 q=20.0 size=    1792KiB time=00:00:02.77 bitrate=5290.1kbits/s speed=0.0322x elapsed=0:01:26.17    \nframe=  335 fps=3.9 q=19.0 size=    1792KiB time=00:00:02.79 bitrate=5258.5kbits/s speed=0.0322x elapsed=0:01:26.70    \nframe=  337 fps=3.9 q=19.0 size=    1792KiB time=00:00:02.80 bitrate=5227.3kbits/s speed=0.0322x elapsed=0:01:27.24    \nframe=  340 fps=3.9 q=23.0 size=    1792KiB time=00:00:02.83 bitrate=5181.2kbits/s speed=0.0323x elapsed=0:01:27.75    \nframe=  342 fps=3.9 q=27.0 size=    1792KiB time=00:00:02.85 bitrate=5150.9kbits/s speed=0.0323x elapsed=0:01:28.28    \nframe=  344 fps=3.9 q=28.0 size=    1792KiB time=00:00:02.86 bitrate=5121.0kbits/s speed=0.0323x elapsed=0:01:28.82    \nframe=  346 fps=3.9 q=27.0 size=    1792KiB time=00:00:02.88 bitrate=5091.4kbits/s speed=0.0323x elapsed=0:01:29.34    \nframe=  347 fps=3.9 q=17.0 size=    1792KiB time=00:00:02.89 bitrate=5076.7kbits/s speed=0.0322x elapsed=0:01:29.87    \nframe=  350 fps=3.9 q=25.0 size=    1792KiB time=00:00:02.91 bitrate=5033.2kbits/s speed=0.0323x elapsed=0:01:30.39    \nframe=  352 fps=3.9 q=22.0 size=    1792KiB time=00:00:02.93 bitrate=5004.6kbits/s speed=0.0323x elapsed=0:01:30.90    \nframe=  354 fps=3.9 q=20.0 size=    1792KiB time=00:00:02.95 bitrate=4976.3kbits/s speed=0.0323x elapsed=0:01:31.43    \nframe=  356 fps=3.9 q=21.0 size=    1792KiB time=00:00:02.96 bitrate=4948.3kbits/s speed=0.0323x elapsed=0:01:31.95    \nframe=  358 fps=3.9 q=21.0 size=    1792KiB time=00:00:02.98 bitrate=4920.7kbits/s speed=0.0323x elapsed=0:01:32.47    \nframe=  360 fps=3.9 q=21.0 size=    1792KiB time=00:00:03.00 bitrate=4893.4kbits/s speed=0.0323x elapsed=0:01:33.00    \nframe=  361 fps=3.9 q=19.0 size=    1792KiB time=00:00:03.00 bitrate=4879.8kbits/s speed=0.0322x elapsed=0:01:33.52    \nframe=  361 fps=3.8 q=19.0 size=    1792KiB time=00:00:03.00 bitrate=4879.8kbits/s speed=0.032x elapsed=0:01:34.03    \nframe=  363 fps=3.8 q=24.0 size=    1792KiB time=00:00:03.02 bitrate=4852.9kbits/s speed=0.032x elapsed=0:01:34.55    \nframe=  365 fps=3.8 q=21.0 size=    1792KiB time=00:00:03.04 bitrate=4826.3kbits/s speed=0.032x elapsed=0:01:35.07    \nframe=  368 fps=3.8 q=20.0 size=    1792KiB time=00:00:03.06 bitrate=4787.0kbits/s speed=0.0321x elapsed=0:01:35.60    \nframe=  370 fps=3.8 q=20.0 size=    1792KiB time=00:00:03.08 bitrate=4761.1kbits/s speed=0.0321x elapsed=0:01:36.13    \nframe=  372 fps=3.8 q=19.0 size=    1792KiB time=00:00:03.10 bitrate=4735.5kbits/s speed=0.0321x elapsed=0:01:36.66    \nframe=  372 fps=3.8 q=19.0 size=    1792KiB time=00:00:03.10 bitrate=4735.5kbits/s speed=0.0319x elapsed=0:01:37.18    \nframe=  374 fps=3.8 q=21.0 size=    1792KiB time=00:00:03.11 bitrate=4710.2kbits/s speed=0.0319x elapsed=0:01:37.71    \nframe=  376 fps=3.8 q=20.0 size=    1792KiB time=00:00:03.13 bitrate=4685.1kbits/s speed=0.0319x elapsed=0:01:38.23    \nframe=  378 fps=3.8 q=20.0 size=    1792KiB time=00:00:03.15 bitrate=4660.3kbits/s speed=0.0319x elapsed=0:01:38.75    \nframe=  381 fps=3.8 q=21.0 size=    1792KiB time=00:00:03.17 bitrate=4623.6kbits/s speed=0.032x elapsed=0:01:39.27    \nframe=  383 fps=3.8 q=21.0 size=    1792KiB time=00:00:03.19 bitrate=4599.5kbits/s speed=0.032x elapsed=0:01:39.79    \nframe=  384 fps=3.8 q=20.0 size=    1792KiB time=00:00:03.20 bitrate=4587.5kbits/s speed=0.0319x elapsed=0:01:40.31    \nframe=  387 fps=3.8 q=29.0 size=    2560KiB time=00:00:03.22 bitrate=6502.8kbits/s speed=0.032x elapsed=0:01:40.84    \nframe=  391 fps=3.9 q=21.0 size=    2560KiB time=00:00:03.25 bitrate=6436.3kbits/s speed=0.0321x elapsed=0:01:41.36    \nframe=  394 fps=3.9 q=20.0 size=    2560KiB time=00:00:03.28 bitrate=6387.3kbits/s speed=0.0322x elapsed=0:01:41.88    \nframe=  397 fps=3.9 q=20.0 size=    2560KiB time=00:00:03.30 bitrate=6339.0kbits/s speed=0.0323x elapsed=0:01:42.40    \nframe=  399 fps=3.9 q=20.0 size=    2560KiB time=00:00:03.32 bitrate=6307.2kbits/s speed=0.0323x elapsed=0:01:42.93    \nframe=  401 fps=3.9 q=24.0 size=    2560KiB time=00:00:03.34 bitrate=6275.8kbits/s speed=0.0323x elapsed=0:01:43.45    \nframe=  403 fps=3.9 q=22.0 size=    2560KiB time=00:00:03.35 bitrate=6244.6kbits/s speed=0.0323x elapsed=0:01:43.96    \nframe=  405 fps=3.9 q=21.0 size=    2560KiB time=00:00:03.37 bitrate=6213.8kbits/s speed=0.0323x elapsed=0:01:44.49    \nframe=  407 fps=3.9 q=20.0 size=    2560KiB time=00:00:03.39 bitrate=6183.2kbits/s speed=0.0323x elapsed=0:01:45.01    \nframe=  410 fps=3.9 q=20.0 size=    2560KiB time=00:00:03.41 bitrate=6138.0kbits/s speed=0.0324x elapsed=0:01:45.54    \nframe=  412 fps=3.9 q=20.0 size=    2560KiB time=00:00:03.43 bitrate=6108.2kbits/s speed=0.0324x elapsed=0:01:46.05    \nframe=  414 fps=3.9 q=21.0 size=    2560KiB time=00:00:03.45 bitrate=6078.7kbits/s speed=0.0324x elapsed=0:01:46.57    \nframe=  414 fps=3.9 q=21.0 size=    2560KiB time=00:00:03.45 bitrate=6078.7kbits/s speed=0.0322x elapsed=0:01:47.09    \nframe=  416 fps=3.9 q=19.0 size=    2560KiB time=00:00:03.46 bitrate=6049.5kbits/s speed=0.0322x elapsed=0:01:47.62    \nframe=  418 fps=3.9 q=19.0 size=    2560KiB time=00:00:03.48 bitrate=6020.5kbits/s speed=0.0322x elapsed=0:01:48.14    \nframe=  421 fps=3.9 q=20.0 size=    2560KiB time=00:00:03.50 bitrate=5977.6kbits/s speed=0.0323x elapsed=0:01:48.65    \nframe=  423 fps=3.9 q=20.0 size=    2560KiB time=00:00:03.52 bitrate=5949.4kbits/s speed=0.0323x elapsed=0:01:49.17    \nframe=  426 fps=3.9 q=20.0 size=    2560KiB time=00:00:03.55 bitrate=5907.5kbits/s speed=0.0324x elapsed=0:01:49.68    \nframe=  428 fps=3.9 q=21.0 size=    2560KiB time=00:00:03.56 bitrate=5879.9kbits/s speed=0.0324x elapsed=0:01:50.21    \nframe=  429 fps=3.9 q=21.0 size=    2560KiB time=00:00:03.57 bitrate=5866.2kbits/s speed=0.0323x elapsed=0:01:50.72    \nframe=  430 fps=3.9 q=11.0 size=    2560KiB time=00:00:03.58 bitrate=5852.5kbits/s speed=0.0322x elapsed=0:01:51.23    \nframe=  433 fps=3.9 q=20.0 size=    2560KiB time=00:00:03.60 bitrate=5812.0kbits/s speed=0.0323x elapsed=0:01:51.75    \nframe=  435 fps=3.9 q=20.0 size=    2560KiB time=00:00:03.62 bitrate=5785.2kbits/s speed=0.0323x elapsed=0:01:52.26    \nframe=  438 fps=3.9 q=20.0 size=    2560KiB time=00:00:03.65 bitrate=5745.6kbits/s speed=0.0324x elapsed=0:01:52.78    \nframe=  440 fps=3.9 q=20.0 size=    2560KiB time=00:00:03.66 bitrate=5719.5kbits/s speed=0.0324x elapsed=0:01:53.29    \nframe=  442 fps=3.9 q=21.0 size=    2560KiB time=00:00:03.68 bitrate=5693.6kbits/s speed=0.0324x elapsed=0:01:53.81    \nframe=  444 fps=3.9 q=21.0 size=    2560KiB time=00:00:03.70 bitrate=5668.0kbits/s speed=0.0324x elapsed=0:01:54.32    \nframe=  444 fps=3.9 q=21.0 size=    2560KiB time=00:00:03.70 bitrate=5668.0kbits/s speed=0.0322x elapsed=0:01:54.84    \nframe=  447 fps=3.9 q=21.0 size=    2560KiB time=00:00:03.72 bitrate=5629.9kbits/s speed=0.0323x elapsed=0:01:55.36    \nframe=  450 fps=3.9 q=20.0 size=    2560KiB time=00:00:03.75 bitrate=5592.4kbits/s speed=0.0324x elapsed=0:01:55.89    \nframe=  452 fps=3.9 q=20.0 size=    2560KiB time=00:00:03.76 bitrate=5567.7kbits/s speed=0.0324x elapsed=0:01:56.40    \nframe=  454 fps=3.9 q=20.0 size=    2560KiB time=00:00:03.78 bitrate=5543.1kbits/s speed=0.0324x elapsed=0:01:56.92    \nframe=  457 fps=3.9 q=20.0 size=    2560KiB time=00:00:03.80 bitrate=5506.7kbits/s speed=0.0324x elapsed=0:01:57.43    \nframe=  458 fps=3.9 q=20.0 size=    2560KiB time=00:00:03.81 bitrate=5494.7kbits/s speed=0.0324x elapsed=0:01:57.96    \nframe=  459 fps=3.9 q=21.0 size=    2560KiB time=00:00:03.82 bitrate=5482.8kbits/s speed=0.0323x elapsed=0:01:58.46    \nframe=  462 fps=3.9 q=22.0 size=    2560KiB time=00:00:03.85 bitrate=5447.1kbits/s speed=0.0324x elapsed=0:01:58.98    \nframe=  465 fps=3.9 q=21.0 size=    2560KiB time=00:00:03.87 bitrate=5412.0kbits/s speed=0.0324x elapsed=0:01:59.50    \nframe=  469 fps=3.9 q=21.0 size=    2560KiB time=00:00:03.90 bitrate=5365.8kbits/s speed=0.0326x elapsed=0:02:00.02    \nframe=  472 fps=3.9 q=22.0 size=    2560KiB time=00:00:03.93 bitrate=5331.7kbits/s speed=0.0326x elapsed=0:02:00.55    \nframe=  474 fps=3.9 q=22.0 size=    2560KiB time=00:00:03.95 bitrate=5309.2kbits/s speed=0.0326x elapsed=0:02:01.06    \nframe=  478 fps=3.9 q=21.0 size=    2560KiB time=00:00:03.98 bitrate=5264.8kbits/s speed=0.0328x elapsed=0:02:01.58    \nframe=  481 fps=3.9 q=20.0 size=    2560KiB time=00:00:04.00 bitrate=5232.0kbits/s speed=0.0328x elapsed=0:02:02.09    \nframe=  485 fps=4.0 q=20.0 size=    2560KiB time=00:00:04.04 bitrate=5188.8kbits/s speed=0.033x elapsed=0:02:02.60    \nframe=  489 fps=4.0 q=20.0 size=    2560KiB time=00:00:04.07 bitrate=5146.4kbits/s speed=0.0331x elapsed=0:02:03.12    \nframe=  489 fps=4.0 q=20.0 size=    2560KiB time=00:00:04.07 bitrate=5146.4kbits/s speed=0.033x elapsed=0:02:03.63    \nframe=  493 fps=4.0 q=21.0 size=    2560KiB time=00:00:04.10 bitrate=5104.6kbits/s speed=0.0331x elapsed=0:02:04.15    \nframe=  497 fps=4.0 q=21.0 size=    2560KiB time=00:00:04.14 bitrate=5063.5kbits/s speed=0.0332x elapsed=0:02:04.66    \nframe=  500 fps=4.0 q=22.0 size=    2560KiB time=00:00:04.16 bitrate=5033.2kbits/s speed=0.0333x elapsed=0:02:05.19    \nframe=  503 fps=4.0 q=21.0 size=    2560KiB time=00:00:04.19 bitrate=5003.1kbits/s speed=0.0333x elapsed=0:02:05.71    \nframe=  507 fps=4.0 q=21.0 size=    2560KiB time=00:00:04.22 bitrate=4963.7kbits/s speed=0.0335x elapsed=0:02:06.21    \nframe=  510 fps=4.0 q=21.0 size=    2560KiB time=00:00:04.25 bitrate=4934.5kbits/s speed=0.0335x elapsed=0:02:06.73    \nframe=  512 fps=4.0 q=22.0 size=    2560KiB time=00:00:04.26 bitrate=4915.2kbits/s speed=0.0335x elapsed=0:02:07.25    \nframe=  517 fps=4.0 q=22.0 size=    3584KiB time=00:00:04.30 bitrate=6814.7kbits/s speed=0.0337x elapsed=0:02:07.77    \nframe=  522 fps=4.1 q=23.0 size=    3584KiB time=00:00:04.35 bitrate=6749.5kbits/s speed=0.0339x elapsed=0:02:08.27    \nframe=  527 fps=4.1 q=22.0 size=    3584KiB time=00:00:04.39 bitrate=6685.4kbits/s speed=0.0341x elapsed=0:02:08.79    \nframe=  528 fps=4.1 q=12.0 size=    3584KiB time=00:00:04.40 bitrate=6672.8kbits/s speed=0.034x elapsed=0:02:09.31    \nframe=  532 fps=4.1 q=22.0 size=    3584KiB time=00:00:04.43 bitrate=6622.6kbits/s speed=0.0341x elapsed=0:02:09.83    \nframe=  536 fps=4.1 q=23.0 size=    3584KiB time=00:00:04.46 bitrate=6573.2kbits/s speed=0.0343x elapsed=0:02:10.34    \nframe=  540 fps=4.1 q=22.0 size=    3584KiB time=00:00:04.50 bitrate=6524.5kbits/s speed=0.0344x elapsed=0:02:10.85    \nframe=  542 fps=4.1 q=22.0 size=    3584KiB time=00:00:04.51 bitrate=6500.4kbits/s speed=0.0344x elapsed=0:02:11.37    \nframe=  545 fps=4.1 q=22.0 size=    3584KiB time=00:00:04.54 bitrate=6464.6kbits/s speed=0.0344x elapsed=0:02:11.89    \nframe=  549 fps=4.1 q=22.0 size=    3584KiB time=00:00:04.57 bitrate=6417.5kbits/s speed=0.0346x elapsed=0:02:12.40    \nframe=  553 fps=4.2 q=23.0 size=    3584KiB time=00:00:04.60 bitrate=6371.1kbits/s speed=0.0347x elapsed=0:02:12.92    \nframe=  557 fps=4.2 q=23.0 size=    3584KiB time=00:00:04.64 bitrate=6325.3kbits/s speed=0.0348x elapsed=0:02:13.44    \nframe=  559 fps=4.2 q=23.0 size=    3584KiB time=00:00:04.65 bitrate=6302.7kbits/s speed=0.0348x elapsed=0:02:13.95    \nframe=  562 fps=4.2 q=22.0 size=    3584KiB time=00:00:04.68 bitrate=6269.1kbits/s speed=0.0348x elapsed=0:02:14.46    \nframe=  566 fps=4.2 q=21.0 size=    3584KiB time=00:00:04.71 bitrate=6224.8kbits/s speed=0.0349x elapsed=0:02:14.99    \nframe=  570 fps=4.2 q=22.0 size=    3584KiB time=00:00:04.75 bitrate=6181.1kbits/s speed=0.0351x elapsed=0:02:15.50    \nframe=  572 fps=4.2 q=21.0 size=    3584KiB time=00:00:04.76 bitrate=6159.5kbits/s speed=0.035x elapsed=0:02:16.01    \nframe=  575 fps=4.2 q=21.0 size=    3584KiB time=00:00:04.79 bitrate=6127.3kbits/s speed=0.0351x elapsed=0:02:16.53    \nframe=  576 fps=4.2 q=21.0 size=    3584KiB time=00:00:04.80 bitrate=6116.7kbits/s speed=0.035x elapsed=0:02:17.04    \nframe=  576 fps=4.2 q=21.0 size=    3584KiB time=00:00:04.80 bitrate=6116.7kbits/s speed=0.0349x elapsed=0:02:17.56    \nframe=  576 fps=4.2 q=21.0 size=    3584KiB time=00:00:04.80 bitrate=6116.7kbits/s speed=0.0348x elapsed=0:02:18.08    \nframe=  576 fps=4.2 q=21.0 size=    3584KiB time=00:00:04.80 bitrate=6116.7kbits/s speed=0.0346x elapsed=0:02:18.59    \nframe=  576 fps=4.1 q=21.0 size=    3584KiB time=00:00:04.80 bitrate=6116.7kbits/s speed=0.0345x elapsed=0:02:19.11    \nframe=  576 fps=4.1 q=21.0 size=    3584KiB time=00:00:04.80 bitrate=6116.7kbits/s speed=0.0344x elapsed=0:02:19.63    \nframe=  576 fps=4.1 q=21.0 size=    3584KiB time=00:00:04.80 bitrate=6116.7kbits/s speed=0.0342x elapsed=0:02:20.15    \n[out#0/webm @ 0000015b08928e00] video:4257KiB audio:0KiB subtitle:0KiB other streams:0KiB global headers:0KiB muxing overhead: 0.111769%\nframe=  600 fps=4.3 q=20.0 Lsize=    4262KiB time=00:00:05.00 bitrate=6982.2kbits/s speed=0.0356x elapsed=0:02:20.43    \n",
  "seconds": 140.66105318069458,
  "probe_out": {}
}